# xmcd
#
# Track frame offsets:
#	150
#	10380
#	20997
#	32830
#	41998
#	52844
#	64955
#	75356
#	87711
#	99347
#	111074
#	121581
#	132074
#	140238
#	149589
#	160761
#	173260
#	184812
#	196717
#	208704
#	218532
#	228753
#	238069
#
# Disc length: 3301 seconds
# Revision: 2
# Processed by: cddbd v1.5.2PL0 Copyright (c) Steve Scherf et al.
# Submitted via: dBpowerAMP V12.0
#
DISCID=3a0ce317
DTITLE=Faron Young - This Is Faron Young - My Garden Of Prayer
DYEAR=2011
DGENRE=Country
TTITLE0=Live Fast Love Hard Die Young
TTITLE1=Tattle Tale Tears
TTITLE2=Goin Steady
TTITLE3=It's A Greate Life (If You Don't Weaken)
TTITLE4=Just Married
TTITLE5=Sweet Dreams
TTITLE6=If You Ain't Lovin' (You Ain't Livin')
TTITLE7=Have I Wanted Too Long
TTITLE8=For The Love Of A Women Like You
TTITLE9=If That's The Fashion
TTITLE10=I've Got Five Dollars And It's Saturday Night
TTITLE11=I Know Who Holds Tomorrow
TTITLE12=He Know's Just What I Need
TTITLE13=Now I Belong To Jesus
TTITLE14=My Wonderful Lord
TTITLE15=My Home Sweet Home
TTITLE16=Beautiful Garden Of Prayer
TTITLE17=Suppertime
TTITLE18=May The Good Lord Bless And Keep You
TTITLE19=What He Can Do
TTITLE20=When I've Learned Enough To Live
TTITLE21=I Won't Have To Cross Jordan Alone
TTITLE22=Traveling On
EXTD=
EXTT0=
EXTT1=
EXTT2=
EXTT3=
EXTT4=
EXTT5=
EXTT6=
EXTT7=
EXTT8=
EXTT9=
EXTT10=
EXTT11=
EXTT12=
EXTT13=
EXTT14=
EXTT15=
EXTT16=
EXTT17=
EXTT18=
EXTT19=
EXTT20=
EXTT21=
EXTT22=
PLAYORDER=
